<?xml version="1.0" encoding="UTF-8" standalone="no"?><!DOCTYPE svg PUBLIC "-//W3C//DTD SVG 1.1//EN" "http://www.w3.org/Graphics/SVG/1.1/DTD/svg11.dtd"><svg width="100%" height="100%" viewBox="0 0 284 284" version="1.1" xmlns="http://www.w3.org/2000/svg" xmlns:xlink="http://www.w3.org/1999/xlink" xml:space="preserve" xmlns:serif="http://www.serif.com/" style="fill-rule:evenodd;clip-rule:evenodd;stroke-linejoin:round;stroke-miterlimit:2;"><g id="shapes"><path id="Rectangle-1-copy-4" serif:id="Rectangle 1 copy 4" d="M143.95,64.021l0,87.327l117.222,-137.228l-117.222,49.901Z" style="fill:#0d4d83;"/><path id="Rectangle-1-copy-5" serif:id="Rectangle 1 copy 5" d="M143.95,64.021l0,87.327l-117.221,-137.228l117.221,49.901Z" style="fill:#0d4d83;"/><path id="Rectangle-1-copy" serif:id="Rectangle 1 copy" d="M143.95,197.746l0,-134.181l-117.164,213.695l117.164,-79.514Z" style="fill:#0d4d83;"/><path id="Rectangle-1-copy-6" serif:id="Rectangle 1 copy 6" d="M26.79,145.94l-0.004,131.273l117.164,-206.108l-117.16,74.835Z" style="fill:#0d67b5;"/><path id="Rectangle-1-copy-2" serif:id="Rectangle 1 copy 2" d="M143.95,197.746l0,-134.181l117.164,213.695l-117.164,-79.514Z" style="fill:#0c4c83;"/><path id="Rectangle-1-copy-3" serif:id="Rectangle 1 copy 3" d="M261.11,145.94l0.004,131.273l-117.164,-206.108l117.16,74.835Z" style="fill:#0d68b5;"/><path id="Rectangle-1-copy-7" serif:id="Rectangle 1 copy 7" d="M143.95,92.463l0,134.602l-117.239,-212.916l117.239,78.314Z" style="fill:#1989e9;"/><path id="Rectangle-1-copy-71" serif:id="Rectangle 1 copy 7" d="M26.79,147.337l-0,-133.279l117.16,210.394l-117.16,-77.115Z" style="fill:#277bc1;"/><path id="Rectangle-1-copy-72" serif:id="Rectangle 1 copy 7" d="M143.95,92.463l0,134.602l117.239,-212.916l-117.239,78.314Z" style="fill:#287ac1;"/><path id="Rectangle-1-copy-73" serif:id="Rectangle 1 copy 7" d="M261.11,147.337l0,-133.279l-117.16,210.394l117.16,-77.115Z" style="fill:#188aea;"/></g></svg>